# xmcd
#
# Track frame offsets: 
#        150
#        15859
#        36260
#        54020
#        76960
#        92580
#        115707
#        135817
#        157984
#        174372
#        191522
#        205975
#        225355
#        240855
#
# Disc length: 3467 seconds
#
# Revision: 0
# Processed by: cddbd v1.5.1PL0 Copyright (c) Steve Scherf et al.
# Submitted via: ExactAudioCopy v0.95a3
#
DISCID=8b0d890e
DTITLE=Various Artist - Blue Gold
DYEAR=1996
DGENRE=Blues
TTITLE0=Bobby Reed - Goin' Home
TTITLE1=Lady Bianca - Sweet Home Chicago
TTITLE2=Taj Mahal - If My Baby Leave Me
TTITLE3=Maria Muldaur - Help Me Up
TTITLE4=Bobby Reed - Worried Dream
TTITLE5=Lady Bianca - Fool's Paradise
TTITLE6=Norton Buffalo - Person to Person
TTITLE7=Maria Muldaur - Brickyard Blues
TTITLE8=Taj Mahal - What A Price
TTITLE9=Lady Bianca - Travelin' Time
TTITLE10=Bobby Reed - Let's Go, Let's Go, Let's Go
TTITLE11=Maria Muldaur - New Orleans
TTITLE12=Taj Mahal - Smoky Places
TTITLE13=Mark Naftalin - Blues for Special Friends
EXTD=
EXTT0=
EXTT1=
EXTT2=
EXTT3=
EXTT4=
EXTT5=
EXTT6=
EXTT7=
EXTT8=
EXTT9=
EXTT10=
EXTT11=
EXTT12=
EXTT13=
PLAYORDER=
